<?xml version="1.0" encoding="UTF-8"?>
<svg id="Layer_1" data-name="Layer 1" xmlns="http://www.w3.org/2000/svg" width="200" height="200" version="1.1" viewBox="0 0 200 200">
  <defs>
    <style>
      .cls-1 {
        fill: none;
        stroke: #f42c5c;
        stroke-miterlimit: 10;
        stroke-width: 1.4308px;
      }

      .cls-2 {
        fill: #1a0a24;
        stroke-width: 0px;
      }
    </style>
  </defs>
  <rect class="cls-2" width="200" height="200"/>
  <g>
    <path class="cls-1" d="M99.50144,99.50144v19.88809c0,9.2048-7.24937,19.88809-19.88809,19.88809s-19.88809-10.68329-19.88809-19.88809,7.20168-19.88809,19.88809-19.88809h19.88809"/>
    <path class="cls-1" d="M99.50144,99.50144v-39.77618h18.07574c9.39557,0,19.88809,7.34476,19.88809,19.88809s-10.5879,19.88809-19.88809,19.88809h-18.07574"/>
    <path class="cls-1" d="M99.50144,99.50144l9.94404,17.22359c4.6024,7.97159,3.6659,20.84828-7.27954,27.16763s-22.56523.69204-27.16763-7.27955-3.7072-20.82443,7.27954-27.16763l17.22359-9.94404"/>
    <path class="cls-1" d="M99.50144,99.50144l-19.88809-34.44718,15.65405-9.03787c8.1368-4.69778,20.89597-3.58329,27.16763,7.27955s.77465,22.51754-7.27954,27.16763l-15.65405,9.03787"/>
    <path class="cls-1" d="M99.50144,99.50144l17.22359,9.94404c7.97159,4.6024,13.5989,16.22219,7.27955,27.16763-6.31936,10.94545-19.19604,11.88194-27.16763,7.27954-7.97159-4.6024-13.62275-16.18089-7.27955-27.16763l9.94404-17.22359"/>
    <path class="cls-1" d="M99.50144,99.50144l-34.44718-19.88809,9.03787-15.65405c4.69778-8.1368,16.30479-13.55121,27.16763-7.27954,10.86284,6.27166,11.92964,19.11343,7.27954,27.16763l-9.03787,15.65405"/>
    <path class="cls-1" d="M99.50144,99.50144h19.88809c9.2048,0,19.88809,7.24937,19.88809,19.88809s-10.68329,19.88809-19.88809,19.88809-19.88809-7.20168-19.88809-19.88809v-19.88809"/>
    <path class="cls-1" d="M99.50144,99.50144h-39.77618v-18.07574c0-9.39557,7.34476-19.88809,19.88809-19.88809,12.54333,0,19.88809,10.5879,19.88809,19.88809v18.07574"/>
    <path class="cls-1" d="M99.50144,99.50144l17.22359-9.94404c7.97159-4.6024,20.84828-3.6659,27.16763,7.27954s.69204,22.56523-7.27955,27.16763c-7.97159,4.6024-20.82443,3.7072-27.16763-7.27954l-9.94404-17.22359"/>
    <path class="cls-1" d="M99.50144,99.50144l-34.44718,19.88809-9.03787-15.65405c-4.69778-8.1368-3.58329-20.89597,7.27955-27.16763,10.86284-6.27166,22.51754-.77465,27.16763,7.27954l9.03787,15.65405"/>
    <path class="cls-1" d="M99.50144,99.50144l9.94404-17.22359c4.6024-7.97159,16.22219-13.5989,27.16763-7.27955s11.88194,19.19604,7.27954,27.16763-16.18089,13.62275-27.16763,7.27955l-17.22359-9.94404"/>
    <path class="cls-1" d="M99.50144,99.50144l-19.88809,34.44718-15.65405-9.03787c-8.1368-4.69778-13.55121-16.30479-7.27954-27.16763,6.27166-10.86284,19.11343-11.92964,27.16763-7.27954l15.65405,9.03787"/>
  </g>
</svg>