<?xml version="1.0" encoding="UTF-8"?>
<svg id="Layer_1" data-name="Layer 1" xmlns="http://www.w3.org/2000/svg" width="1200" height="630" version="1.1" viewBox="0 0 1200 630">
  <defs>
    <style>
      .cls-1 {
        fill: #f42c5c;
      }

      .cls-1, .cls-2, .cls-3 {
        stroke-width: 0px;
      }

      .cls-2 {
        fill: #29f699;
      }

      .cls-3 {
        fill: #1a0a24;
      }
    </style>
  </defs>
  <rect class="cls-3" width="1200" height="630"/>
  <path class="cls-2" d="M1165.37896,512.05253c-1.98094-5.95628-6.03217-11.13597-11.17498-14.34052-2.632-11.21423-12.25411-18.41105-22.07688-19.79263-3.5976-3.93371-8.24289-6.61973-13.50664-7.72527-5.27443-1.10715-10.84078-.59079-15.72594,1.39509-5.08138-1.60593-10.44495-1.6085-15.5539.06506-5.12069,1.67789-9.68036,4.90597-12.91731,9.06579-11.38697,2.52839-18.69773,12.23965-20.09181,22.15005-3.93422,3.59801-6.62049,8.2435-7.72578,13.50725-1.10786,5.27589-.59064,10.84133,1.39534,15.72604-1.60588,5.08093-1.60895,10.44465.0648,15.55339,1.27254,3.88483,3.43711,7.44721,6.2234,10.35425,1.50595,12.51393,11.41272,20.72054,21.75352,22.52118,3.74777,4.68344,8.86735,7.8513,14.7559,9.05999,1.81329.37249,3.65802.55552,5.4955.55552,3.21201,0,6.39499-.5726,9.3508-1.65899,3.01407,1.17644,6.15074,1.78396,9.2989,1.78396,2.68486,0,5.37698-.43296,8.00137-1.30534,4.82484-1.60452,9.1379-4.5693,12.30793-8.36958,12.0466-1.83465,19.92975-11.5314,21.69053-21.64225,4.68359-3.74777,7.8514-8.8674,9.06009-14.756,1.02234-4.97914.61226-10.19552-1.09269-14.84005,2.1816-5.58645,2.36498-11.60305.46783-17.30692ZM1163.81158,512.57378c1.1964,3.597,1.98255,8.73104.14976,14.53785-.26687-.55516-.54766-1.10267-.85444-1.634-2.46112-4.26277-6.26336-7.82399-10.75154-10.17259,1.61273-3.33244,2.55828-7.15524,2.55828-11.40869,0-1.35029-.1027-2.65342-.2834-3.91567,4.20185,3.02934,7.4907,7.5097,9.18134,12.59309ZM1155.4227,558.06049c-.83761.6305-1.74828,1.23585-2.73918,1.80795-4.11845,2.37747-8.04188,3.26325-11.51618,3.35421-.03643-1.61913-.21522-3.23992-.54151-4.83532-.78878-3.85752-2.70446-8.85495-7.22201-13.17144,6.24573,1.67517,13.32236,1.14212,19.42951-2.09039,1.78215,3.32095,2.83981,7.20216,2.83981,11.5643,0,1.11904-.08501,2.24645-.25045,3.37069ZM1134.39497,579.04625c-1.06608.13621-2.16165.21527-3.29354.21527-4.39419,0-8.29964-1.0741-11.63661-2.88008.77175-1.41263,1.42291-2.89656,1.93483-4.43193,1.24563-3.73512,2.08576-9.02149.33137-15.0194,2.95602,2.95506,6.65037,5.26738,10.71122,6.62135,2.31806.77316,4.68727,1.18264,7.05764,1.27541-.15274,4.05193-1.24719,8.02823-3.21982,11.44502-.55713.96515-1.18853,1.89215-1.8851,2.77436ZM1075.12975,576.27189c-1.24905-2.16346-2.11357-4.36381-2.65231-6.557l8.13249,4.69533,8.63292-14.95248c-.94681,5.56181-.19411,11.56884,2.5742,16.85909-3.61146,1.91594-7.61018,2.94468-11.50947,2.94468-1.15109,0-2.26454-.08179-3.34751-.22253-.63841-.84562-1.25162-1.76466-1.83032-2.7671ZM1055.73667,554.6898c0-2.49811.35148-4.83592.98153-7.00457l4.69538,8.13254,14.95268-8.63292c-4.28877,5.17229-6.81349,12.09684-6.11279,19.33916l-9.43974-5.4502c-1.78895-1.03272-3.44154-2.31856-4.9233-3.79433-.09811-.86467-.15374-1.72964-.15374-2.58967ZM1075.36312,482.21777c1.57121-.30981,3.21836-.4824,4.94447-.4824,1.38073,0,2.71212.10834,3.99444.30915l-5.1224,2.95743,9.83869,17.0409c-5.79815-4.80745-13.79932-7.39803-21.97922-5.71495l6.8853-11.92541c.43518-.75386.91934-1.48101,1.43873-2.18472ZM1102.99657,473.3402c1.46191.51062,2.96307,1.18516,4.49261,2.06842,1.19574.69031,2.29458,1.44976,3.30468,2.2648h-5.91455v19.67668c-2.61754-7.06273-8.25161-13.30674-16.17724-15.93884l11.925-6.88509c.76358-.44088,1.55695-.83282,2.36951-1.18596ZM1131.33787,479.48544c1.00975,1.17241,1.97162,2.50622,2.85397,4.0346,2.13751,3.70186,3.06708,7.24575,3.30291,10.44762-.90327.09106-1.80361.22253-2.6958.40469-4.14329.84723-9.60216,2.99215-14.1191,8.26764,1.7572-7.78136.14573-16.67133-5.759-23.31535h13.76984c.87913,0,1.7633.0583,2.64717.1608ZM1152.74263,498.7542c.33531,1.62986.51979,3.34393.51979,5.14215,0,3.983-.88482,7.56301-2.3942,10.68416-.81821-.3671-1.6538-.69822-2.50708-.98279-4.00844-1.33689-9.80574-2.20861-16.35281.09791,2.62127-2.83674,4.67074-6.26755,5.9012-10.00529.88498-2.68748,1.30554-5.44294,1.27914-8.18877,4.74819-.19708,9.50278.91148,13.49485,3.21654.01996.01154.0392.02449.05911.03608ZM1128.6907,528.46767h-19.9048l17.23849-9.95253c.00191-.00111.00373-.00232.00564-.00343l2.08177-1.20194c7.91671-4.57192,15.09649-3.69027,19.72687-2.14547.76822.25619,1.52167.55133,2.25961.87863-4.51876,7.87549-13.18741,12.42474-21.40758,12.42474ZM1139.00766,558.7179c.30305,1.48201.4698,2.98691.50699,4.49014-2.50123-.11404-4.72521-.61463-6.55075-1.22315-5.76237-1.92133-10.93778-6.0744-13.84517-11.11032l-11.15764-19.3252,19.3251,11.15774c7.91671,4.56991,10.74347,11.22884,11.72147,16.0108ZM1136.34135,503.17435c-1.93126,5.86547-5.99065,10.93431-11.13814,13.90776l-17.24212,9.95515,9.95228-17.23783c.00035-.0006.00066-.00131.00101-.00191l1.20436-2.08591c4.56991-7.91631,11.22884-10.74347,16.0108-11.72147.80531-.16488,1.61752-.28678,2.4323-.37254.00479,2.91455-.54005,5.4899-1.22048,7.55676ZM1116.48406,508.97189l-9.95354,17.23975v-46.887h6.10614c8.34514,8.26733,8.86951,20.94599,3.84739,29.64725ZM1104.8793,506.30709v19.90455l-23.44375-40.60499,5.28849-3.05342c11.36158,2.98781,18.15526,13.70715,18.15526,23.75386ZM1072.09659,497.4664c9.05435,0,17.29921,5.23104,21.39987,12.33302l9.95263,17.23803-17.23803-9.95263c-.00469-.00272-.00962-.00509-.01431-.00781l-23.35284-13.48301,3.05463-5.29066c2.08157-.56801,4.16007-.83695,6.19806-.83695ZM1060.58797,504.19871l17.03904,9.83743c-7.42504-1.26397-15.64889.49348-21.89033,6.04053v-13.76959c0-.83912.05266-1.68293.14609-2.52658,1.25581-1.14112,2.61215-2.14547,4.04891-2.97496,1.19327-.68895,2.39813-1.24966,3.60632-1.71634l-2.95002,5.1095ZM1073.02218,515.28766c4.40427,0,8.72701,1.13038,12.35625,3.22375l17.24484,9.95626h-46.88659v-6.09783c4.81798-4.8654,11.12927-7.08218,17.2855-7.08218ZM1071.35054,530.1189c-6.2999,2.33489-11.94838,7.06902-14.96271,13.69092l-5.45005-9.43949c-.44758-.77522-.8428-1.55544-1.19549-2.33817.51183-1.47163,1.18884-2.98308,2.07835-4.52355.68905-1.19352,1.45158-2.28299,2.2648-3.29152v5.90181h17.26509ZM1080.30758,530.1189h22.31563l-40.60494,23.44294-4.59561-7.95964c3.84633-9.74809,13.65182-15.4833,22.88491-15.4833ZM1084.12283,542.7071l19.32656-11.15855-11.1583,19.32601c-.00136.00237-.00252.00479-.00388.00716l-12.28198,21.27258-7.95919-4.59535c-1.54329-10.36534,4.0803-20.23527,12.07678-24.85184ZM1093.71596,551.7102l11.16334-19.33528v22.31488c0,9.49507-4.99219,16.72641-11.62371,20.81049-3.99736-7.67463-3.47979-16.95715.46038-23.79009ZM1105.74684,561.17514c1.6609,6.27213,5.66869,12.16295,11.54243,15.84879-1.98497,3.20374-4.81728,6.06019-8.59473,8.24103-.9721.56131-1.99026,1.05107-3.04269,1.46901-.96525-.41039-1.94521-.89652-2.93657-1.46901-3.81293-2.20115-6.66161-5.09106-8.64905-8.33128,5.50457-3.37094,9.95192-8.77337,11.6806-15.75854ZM1106.53053,554.6898v-22.31528l11.15789,19.32565c3.96007,6.85934,4.46817,16.191.42011,23.88578-7.35298-4.63995-11.57801-12.97552-11.57801-20.89616ZM1128.1118,541.27679l-19.3253-11.15789h22.31493c7.92074,0,16.25641,4.22518,20.89631,11.57826-7.69489,4.04856-17.02644,3.54036-23.88594-.42037ZM1150.4937,537.02858c-2.80489-3.16418-7.39203-6.81898-14.21943-8.09313,6.1846-1.92294,11.88681-6.13658,15.31429-12.16905,4.21419,2.20357,7.78166,5.54226,10.08803,9.53685.56141.9722,1.05117,1.99047,1.46896,3.04299-.41034.9653-.89652,1.94531-1.46896,2.93667-2.19702,3.80532-5.07987,6.65057-8.31223,8.63761-.83751-1.37468-1.79696-2.68068-2.87065-3.89194ZM1152.18731,496.58414c-3.96959-1.97842-8.52458-2.91752-13.07262-2.72956-.29005-3.84155-1.45652-7.63366-3.49254-11.16016-.56827-.98435-1.19327-1.91463-1.8595-2.80081,8.08688,1.78487,15.69061,7.73419,18.42465,16.69053ZM1118.28102,471.81026c3.31959.69691,7.54865,2.30143,11.34666,5.88628-.31268-.01219-.62531-.02313-.93698-.02313h-15.3871c-1.45329-1.36334-3.10835-2.60942-4.98881-3.69511-.98788-.57023-1.99797-1.06482-3.02178-1.50011,4.13029-1.3191,8.66119-1.57736,12.98801-.66794ZM1087.85502,473.22324c3.22309-1.05636,7.68798-1.78134,12.76926-.57603-.27645.14583-.55249.29257-.82284.44864l-13.32614,7.69393c-1.94017-.45403-3.99645-.70563-6.16772-.70563-1.15452,0-2.27392.07654-3.36434.20958,2.91701-3.20606,6.71094-5.69399,10.91178-7.07049ZM1072.95415,482.82307c-.15631.24959-.31303.49903-.46007.75381l-7.69383,13.32599c-1.90722.57678-3.81383,1.38693-5.69419,2.47236-.98415.56821-1.91427,1.19317-2.80031,1.8593,1.78215-8.07413,7.71545-15.66662,16.6484-18.41145ZM1054.10369,505.5681c-.00761.24646-.01824.49318-.01824.73899v15.3869c-1.36339,1.45334-2.60947,3.1085-3.69511,4.98901-.58394,1.01146-1.08866,2.0463-1.5311,3.0954-3.04002-8.99423-.26476-18.08365,5.24445-24.21031ZM1049.63487,547.14317c-1.0558-3.22319-1.78099-7.68783-.57562-12.76941.14573.27625.29227.55209.44823.82219l6.09818,10.56227c-.96968,2.71207-1.52021,5.69631-1.52021,8.9316,0,.20741.01169.40938.01613.61473-1.95403-2.40448-3.49027-5.18075-4.4667-8.16136ZM1056.34278,559.93254c1.14298.96374,2.36044,1.82977,3.64532,2.57158l10.56216,6.09813c.51626,2.83362,1.5316,5.69334,3.14917,8.49526.30462.52755.62904,1.0361.96243,1.53573-9.81929-2.23854-16.37654-10.18579-18.31908-18.7007ZM1091.13088,587.97482c-3.7133-.76217-8.55275-2.64853-12.66556-7.13967.61528.04681,1.23006.0776,1.84226.0776,4.17474,0,8.45635-1.10478,12.32017-3.16217,2.12234,3.47953,5.17209,6.5835,9.26191,8.9447.49626.28653.9981.55421,1.50409.80662-3.91517,1.12731-8.17159,1.31436-12.26288.47292ZM1122.42442,587.39995c-3.59664,1.1974-8.72937,1.98286-14.53478.15097.55446-.26657,1.09985-.54932,1.63052-.85565,3.65903-2.11272,6.80099-5.21462,9.10424-8.88871,3.57407,1.94673,7.76171,3.10618,12.47704,3.10618.57809,0,1.146-.02197,1.70817-.05598-2.82853,2.93505-6.42311,5.2254-10.38519,6.54319ZM1136.73475,578.63626c.34276-.50291.67247-1.01373.97563-1.53876,2.11327-3.66004,3.28336-7.91873,3.44048-12.25356,4.24871-.11424,8.46452-1.29733,12.35827-3.54519.49711-.28703.9777-.59129,1.45002-.90387-2.0722,8.34252-8.57608,16.04723-18.2244,18.24138ZM1164.38645,543.86732c-.76217,3.7133-2.64853,8.5528-7.13972,12.66566.04686-.61553.07765-1.23066.07765-1.84317,0-4.22558-1.11557-8.49722-3.14604-12.32904,3.47278-2.12179,6.5707-5.16856,8.92857-9.25224.28738-.49767.55174-1.00209.80475-1.50958,1.12842,3.91779,1.31502,8.17703.47479,12.26837Z"/>
  <path class="cls-2" d="M798.0791,138.7041c-21.47949-19.24512-49.93652-30.28223-78.07227-30.28223l-156.11963-.16846v198.69727h-82.99854c-55.56152,0-115.53027,44.1709-115.53027,115.53125s59.96875,115.53076,115.53027,115.53076h50.01172c27.875,0,56.1875-10.92676,77.67871-29.97852,24.40918-21.63867,37.85254-52.02148,37.85254-85.55225v-82.99854h73.5752c55.56152,0,115.53125-44.17041,115.53125-115.53076,0-33.33105-13.30371-63.60596-37.45898-85.24854ZM563.88721,339.4834v82.99854c0,30.87939-14.62842,50.3291-26.90039,61.20801-8.91937,7.90723-19.71643,13.95142-31.05737,17.65015-11.35223-3.70978-22.17096-9.77936-31.11743-17.72339-12.27637-10.90039-26.90967-30.35547-26.90967-61.13477,0-30.74805,14.67334-50.2124,26.98291-61.12695,15.4458-13.69531,36.38623-21.87158,56.01514-21.87158h32.98682ZM646.43164,306.95068v-165.99609h23.56348c20.22852,0,40.77246,8.01074,56.36328,21.97949,12.15039,10.88672,26.63477,30.31006,26.63477,61.01855,0,30.64404-14.56445,50.08789-26.78223,61.00342-15.41602,13.77246-36.43164,21.99463-56.21582,21.99463h-23.56348Z"/>
  <path class="cls-1" d="M454.9873,538.0127c-55.56152,0-115.53027-44.17041-115.53027-115.53076s59.96875-115.53125,115.53027-115.53125h82.99854V108.42188h106.10791c28.13574,0,56.5918,11.03711,78.07227,30.28223,24.15527,21.64258,37.45898,51.91748,37.45898,85.24854,0,71.36035-59.96973,115.53125-115.53125,115.53125h-73.57568v82.99805c0,33.53076-13.44238,63.91357-37.85156,85.55225-21.49121,19.05176-49.8042,29.97852-77.6792,29.97852ZM454.9873,339.48389c-19.62891,0-40.56885,8.17578-56.01465,21.87109-12.30957,10.91455-26.9834,30.37891-26.9834,61.12695,0,30.7793,14.63379,50.23438,26.91016,61.13477,15.41797,13.69043,36.38574,21.86377,56.08789,21.86377,19.73584,0,40.70703-8.146,56.09814-21.79053,12.27197-10.87842,26.90039-30.32861,26.90039-61.20801v-82.99805h-82.99854ZM570.51807,306.95068h73.57568c19.78418,0,40.7998-8.22217,56.21582-21.99463,12.21777-10.91553,26.78223-30.35938,26.78223-61.00342,0-30.7085-14.48438-50.13184-26.63477-61.01855-15.59082-13.96875-36.13477-21.97998-56.36328-21.97998h-73.57568v165.99658Z"/>
</svg>